<svg id="visual" viewBox="0 0 1920 1080" width="1920" height="1080" xmlns="http://www.w3.org/2000/svg" xmlns:xlink="http://www.w3.org/1999/xlink" version="1.1"><g><g transform="translate(31 799)"><path d="M157.2 -125.2C202.1 -69 235.9 -3.7 224.1 52.4C212.2 108.5 154.9 155.5 89.9 186.8C24.9 218.1 -47.6 233.8 -106.6 209.8C-165.6 185.8 -211 122.2 -226.9 52C-242.7 -18.2 -229 -94.9 -186.2 -150.6C-143.5 -206.4 -71.7 -241.1 -7.8 -234.9C56.1 -228.7 112.3 -181.5 157.2 -125.2Z" stroke="#111111" fill="none" stroke-width="20"></path></g><g transform="translate(1732 1008)"><path d="M134.6 -103.2C163.9 -70.7 169.6 -15.3 159.2 38.9C148.9 93.1 122.4 146.2 81.6 163.7C40.7 181.2 -14.6 163.2 -61 136.9C-107.4 110.6 -145 76.1 -159.8 30.9C-174.5 -14.4 -166.6 -70.4 -136.1 -103.2C-105.7 -136 -52.9 -145.5 -0.1 -145.4C52.7 -145.4 105.4 -135.7 134.6 -103.2Z" stroke="#111111" fill="none" stroke-width="20"></path></g><g transform="translate(1148 484)"><path d="M70.5 -54.5C89.7 -32.2 102.3 -3 98.7 26.3C95 55.5 74.9 84.7 46.8 98.9C18.7 113.1 -17.5 112.3 -44.5 97.4C-71.5 82.4 -89.3 53.4 -92.6 25C-96 -3.4 -85 -31.2 -67.2 -53.2C-49.3 -75.3 -24.7 -91.5 0.5 -91.9C25.7 -92.3 51.4 -76.9 70.5 -54.5Z" stroke="#111111" fill="none" stroke-width="20"></path></g></g></svg>