<svg xmlns="http://www.w3.org/2000/svg" fill="none" viewBox="0 0 30 30" id="React-Query-Icon--Streamline-Svg-Logos" height="30" width="30">
  <desc>
    React Query Icon Streamline Icon: https://streamlinehq.com
  </desc>
  <path fill="#00435b" d="m18.440125000000002 18.194312500000002 -0.5634375 0.9784375c-0.16975 0.29471875000000003 -0.48396875 0.476375 -0.8240937500000001 0.476375H12.736156249999999c-0.340125 0 -0.65434375 -0.18165625000000002 -0.8240937500000001 -0.476375l-0.5635 -0.9784375h7.0915625Zm1.5774374999999998 -2.739 -0.99353125 1.7250937499999999h-8.259375l-0.99346875 -1.7250937499999999h10.246375Zm-0.95703125 -2.67840625 0.9586250000000001 1.6645625H9.76959375l0.9585937499999999 -1.6645625h8.33234375Zm-2.0079374999999997 -2.532c0.340125 0 0.65434375 0.18165625000000002 0.8240937500000001 0.476375l0.5999375 1.04171875H11.31209375l0.5999687499999999 -1.04171875c0.16975 -0.29471875000000003 0.48396875 -0.476375 0.8240937500000001 -0.476375h4.3164375Z" stroke-width="0.3125"></path>
  <path fill="#002b3b" d="M6.45403125 9.79103125c-0.47815625 -2.3185625 -0.58075 -4.096875 -0.27168749999999997 -5.38815625 0.1838125 -0.7679999999999999 0.519875 -1.39451875 1.0309062500000001 -1.8465406249999998 0.5395 -0.47721562500000003 1.22159375 -0.7113875000000001 1.988 -0.7113875000000001 1.264375 0 2.5935 0.5765625 4.0139375 1.671865625 0.579375 0.44678125 1.1806875 0.9852812499999999 1.80515625 1.6158125 0.04971875 -0.064 0.10590625 -0.12434374999999999 0.1685 -0.180125 1.76553125 -1.57334375 3.2519375 -2.5508625 4.52328125 -2.92776875 0.7559375 -0.22410625 1.4656875 -0.245459375 2.112 -0.027953125000000002 0.68221875 0.229590625 1.2258125 0.704184375 1.6093437499999999 1.368940625 0.6329374999999999 1.09709375 0.79984375 2.5386875 0.563875 4.31865625 -0.09618750000000001 0.72553125 -0.260625 1.5158749999999999 -0.49296874999999996 2.3721875 0.08765625 0.010593749999999999 0.17553125 0.030031250000000002 0.26253125 0.05884375 2.2400625 0.7423124999999999 3.82625 1.54059375 4.7865625000000005 2.4529062500000003 0.571375 0.54278125 0.94446875 1.1470624999999999 1.07934375 1.81596875 0.142375 0.70603125 0.0035625 1.41421875 -0.37949999999999995 2.07846875 -0.63178125 1.0955 -1.79340625 1.95953125 -3.4483124999999997 2.643875 -0.6645 0.27478125 -1.41634375 0.5236562499999999 -2.256375 0.7474999999999999 0.03834375 0.08653124999999999 0.0680625 0.17843749999999997 0.08796874999999998 0.27487500000000004 0.47815625 2.31853125 0.58075 4.09684375 0.27168749999999997 5.38815625 -0.1838125 0.7679999999999999 -0.51990625 1.3944999999999999 -1.0309062500000001 1.84653125 -0.5395 0.47721874999999997 -1.22159375 0.7113750000000001 -1.98803125 0.7113750000000001 -1.2643437499999999 0 -2.5935 -0.5765625 -4.0139375 -1.671875 -0.58553125 -0.4515 -1.19346875 -0.9967187499999999 -1.82509375 -1.6359375 -0.065 0.10165624999999999 -0.14478125 0.19612500000000002 -0.23915625 0.28025 -1.76553125 1.5733125000000001 -3.2519375 2.55084375 -4.52328125 2.92775 -0.7559375 0.22409374999999998 -1.4656875 0.2454375 -2.112 0.027937499999999997 -0.68221875 -0.22959375 -1.2258125 -0.7041875 -1.6093437499999999 -1.3689375000000001 -0.6329374999999999 -1.09709375 -0.79984375 -2.53865625 -0.563875 -4.31865625 0.09965625 -0.75175 0.27259374999999997 -1.57309375 0.51840625 -2.4653125 -0.0960625 -0.00971875 -0.1925625 -0.030031250000000002 -0.28796875 -0.06165625 -2.2400625 -0.7423437500000001 -3.826246875 -1.540625 -4.78656875 -2.4529062500000003 -0.571365625 -0.54278125 -0.9444750000000001 -1.1470624999999999 -1.07935 -1.81596875 -0.1423634375 -0.70603125 -0.00355 -1.41421875 0.379525 -2.07846875 0.631771875 -1.0955 1.793409375 -1.95953125 3.4483 -2.643875 0.6843125 -0.283 1.46121875 -0.53846875 2.3316875 -0.7674375 -0.031 -0.07593749999999999 -0.0555 -0.15575 -0.07265625 -0.23893749999999997Z" stroke-width="0.3125"></path>
  <path fill="#ff4154" d="M22.07365625 20.3568125c0.22275 -0.03946875 0.43615624999999997 0.10334375 0.48590625 0.32240625l0.00271875 0.012968750000000001 0.02375 0.12328125000000001c0.7699062499999999 4.04784375 0.2275625 6.07178125 -1.6270937499999998 6.07178125 -1.8145625 0 -4.124499999999999 -1.7269999999999999 -6.92978125 -5.1810624999999995 -0.062 -0.0763125 -0.09543750000000001 -0.17184375000000002 -0.09459375 -0.27015625 0.00203125 -0.22903125 0.1858125 -0.41390625000000003 0.41321875 -0.418875l0.01315625 -0.0000625 0.14771875 0.00103125c1.1805 0.0064062500000000005 2.3280937500000003 -0.034749999999999996 3.4428124999999996 -0.12346875 1.315875 -0.10471875 2.6899374999999996 -0.28400000000000003 4.1221875 -0.5378437500000001Zm-12.7369375 -3.05978125 0.00709375 0.011999999999999999 0.074125 0.129375c0.59403125 1.03271875 1.2129375 2.01290625 1.8566875 2.9405625000000004 0.75815625 1.0924687499999999 1.61071875 2.19840625 2.55771875 3.3178125000000005 0.1465 0.1731875 0.12975 0.43021875 -0.035500000000000004 0.58309375l-0.01075 0.009625 -0.0953125 0.082c-3.1332500000000003 2.68471875 -5.1697187499999995 3.22065625 -6.10946875 1.607875 -0.91984375 -1.57865625 -0.58634375 -4.4491249999999996 1.0005 -8.611375 0.034875 -0.09146875 0.10040624999999999 -0.16799999999999998 0.18540625000000002 -0.2165 0.19868750000000002 -0.11340625 0.45059375 -0.0479375 0.5695 0.14553125ZM23.663625000000003 11.3240625l0.01284375 0.0041875 0.1179375 0.04071875C27.661875000000002 12.7143125 29.13125 14.1928125 28.20246875 15.804437499999999c-0.908375 1.5761875 -3.5490937500000004 2.7238125 -7.9221875 3.4428437499999998 -0.09753125 0.01603125 -0.19759374999999998 -0.0026249999999999997 -0.28278125 -0.052718749999999995 -0.20121875 -0.11828125 -0.26846875 -0.3773125 -0.15015625 -0.5785625 0.6263437500000001 -1.0654375 1.19046875 -2.1255625 1.69234375 -3.1803437499999996 0.56921875 -1.19628125 1.103375 -2.4803125 1.6025 -3.8520937500000003 0.0756875 -0.208 0.29796875 -0.32096874999999997 0.5085625 -0.26325l0.012875000000000001 0.00375Zm-13.661312500000001 -0.67734375c0.20121875 0.11828125 0.26846875 0.3773125 0.15015625 0.5785625 -0.6263437500000001 1.0654375 -1.19046875 2.1255625 -1.69234375 3.1803749999999997 -0.56921875 1.19625 -1.103375 2.48028125 -1.6025 3.8520937500000003 -0.07721875 0.21221875 -0.307125 0.3255 -0.5214375 0.25946875l-0.01284375 -0.0041875 -0.1179375 -0.04071875C2.337925 17.12696875 0.868565625 15.64846875 1.7973343750000002 14.036875c0.908365625 -1.57621875 3.549103125 -2.7238437500000003 7.922196875000001 -3.4428750000000004 0.09753125 -0.01603125 0.1975625 0.0026249999999999997 0.28278125 0.052718749999999995Zm12.4161875 -6.6263125c0.91984375 1.57865625 0.58634375 4.4491249999999996 -1.0005 8.611375 -0.034875 0.09146875 -0.10040624999999999 0.16799999999999998 -0.18540625000000002 0.21653124999999998 -0.19868750000000002 0.113375 -0.45059375 0.04790625 -0.5695 -0.14556249999999998l-0.00709375 -0.011999999999999999 -0.074125 -0.129375c-0.59403125 -1.03271875 -1.2129375 -2.01290625 -1.8566875 -2.9405625000000004 -0.75815625 -1.0924375 -1.61071875 -2.19840625 -2.55771875 -3.3178125000000005 -0.1465 -0.1731875 -0.12978125000000001 -0.43021875 0.035500000000000004 -0.58309375l0.01075 -0.009625 0.09528125 -0.082C19.44225 2.9435781249999997 21.478749999999998 2.407625 22.418499999999998 4.02040625ZM9.19934375 3.05969375c1.81459375 0 4.1245312499999995 1.727025 6.9298125 5.18105625 0.062 0.0763125 0.09543750000000001 0.17184375000000002 0.09459375 0.27015625 -0.00203125 0.22903125 -0.1858125 0.41390625000000003 -0.41321875 0.418875l-0.01315625 0.00009374999999999999 -0.14771875 -0.0010624999999999999c-1.1805 -0.0064062500000000005 -2.3280937500000003 0.034749999999999996 -3.4428124999999996 0.12346875 -1.315875 0.10475 -2.6899374999999996 0.28403125 -4.1221875 0.5378437500000001 -0.22275 0.03946875 -0.43618749999999995 -0.1033125 -0.48590625 -0.322375l-0.00271875 -0.013 -0.02375 -0.12328125000000001c-0.7699374999999999 -4.04784375 -0.2275625 -6.071775000000001 1.6270625 -6.071775000000001Z" stroke-width="0.3125"></path>
  <path fill="#ffd94c" d="M13.083 10.298h3.6232187500000004c0.529875 0 1.01928125 0.28340625 1.2830312499999998 0.74296875l1.81925 3.1699687500000002c0.26171875 0.45603125 0.26171875 1.0166875 0 1.4726875000000001l-1.81925 3.1699687500000002c-0.26375 0.4595625 -0.75315625 0.74296875 -1.2830312499999998 0.74296875H13.083c-0.529875 0 -1.01928125 -0.28340625 -1.2830312499999998 -0.74296875l-1.81928125 -3.1699687500000002c-0.2616875 -0.456 -0.2616875 -1.01665625 0 -1.4726875000000001l1.81928125 -3.1699687500000002c0.26375 -0.4595625 0.75315625 -0.74296875 1.2830312499999998 -0.74296875Zm3.0709999999999997 0.95678125c0.53015625 0 1.01978125 0.28368750000000004 1.28340625 0.74365625l1.268625 2.2131875c0.2611875 0.45565625 0.2611875 1.0156562500000001 0 1.4713124999999998l-1.268625 2.2132187500000002c-0.263625 0.4599375 -0.75325 0.74365625 -1.28340625 0.74365625h-2.5188125c-0.53015625 0 -1.01975 -0.28371875 -1.28340625 -0.74365625l-1.268625 -2.2132187500000002c-0.2611875 -0.45565625 -0.2611875 -1.0156562500000001 0 -1.4713124999999998l1.268625 -2.2131875c0.26365625 -0.45996875 0.75325 -0.74365625 1.28340625 -0.74365625h2.5188125Zm-0.59521875 1.0464375h-1.3283749999999999c-0.529625 0 -1.0188125000000001 0.283125 -1.2826874999999998 0.7423437500000001l-0.6703749999999999 1.16675c-0.2621875 0.45634375 -0.2621875 1.017625 0 1.47396875l0.6703749999999999 1.16671875c0.263875 0.45921875 0.7530625000000001 0.7423437500000001 1.2826874999999998 0.7423437500000001h1.3283749999999999c0.529625 0 1.01884375 -0.283125 1.2826874999999998 -0.7423437500000001l0.6703749999999999 -1.16671875c0.2621875 -0.45634375 0.2621875 -1.017625 0 -1.47396875l-0.6703749999999999 -1.16675c-0.26384375000000004 -0.45921875 -0.7530625000000001 -0.7423437500000001 -1.2826874999999998 -0.7423437500000001Zm-0.5730937500000001 1.001625c0.52921875 0 1.018125 0.28271874999999996 1.2820937499999998 0.7413749999999999l0.09506250000000001 0.165125c0.2629375 0.4568125 0.2629375 1.0190625 0 1.475875l-0.09506250000000001 0.165125c-0.26396875 0.4586875 -0.752875 0.7413749999999999 -1.2820937499999998 0.7413749999999999h-0.1821875c-0.52921875 0 -1.01809375 -0.2826875 -1.2820937499999998 -0.7413749999999999l-0.09506250000000001 -0.165125c-0.2629375 -0.4568125 -0.2629375 -1.0190625 0 -1.475875l0.09506250000000001 -0.165125c0.264 -0.45865625 0.752875 -0.7413749999999999 1.2820937499999998 -0.7413749999999999h0.1821875Zm-0.09084375 0.98665625c-0.2355625 0 -0.45278125 0.12537500000000001 -0.570375 0.32890625 -0.11759375000000001 0.20346875 -0.11759375000000001 0.45428124999999997 0 0.6577812500000001 0.11759375000000001 0.20350000000000001 0.33481249999999996 0.32887500000000003 0.569875 0.32887500000000003 0.2355625 0 0.45278125 -0.12537500000000001 0.570375 -0.32887500000000003 0.11759375000000001 -0.20350000000000001 0.11759375000000001 -0.4543125 0 -0.6577812500000001 -0.11759375000000001 -0.20353125 -0.33481249999999996 -0.32890625 -0.569875 -0.32890625Zm-5.33675 0.6577812500000001h1.18428125Z" stroke-width="0.3125"></path>
</svg>